<?xml version="1.0" encoding="UTF-8" standalone="no"?>
<!-- Created with Inkscape (http://www.inkscape.org/) -->
<svg id="svg2" xmlns:rdf="http://www.w3.org/1999/02/22-rdf-syntax-ns#" xmlns="http://www.w3.org/2000/svg" xml:space="preserve" height="129.76" viewBox="0 0 840.112 129.75803" width="840.11" version="1.1" xmlns:cc="http://creativecommons.org/ns#" xmlns:dc="http://purl.org/dc/elements/1.1/"><metadata id="metadata8"><rdf:RDF><cc:Work rdf:about=""><dc:format>image/svg+xml</dc:format><dc:type rdf:resource="http://purl.org/dc/dcmitype/StillImage"/><dc:title/></cc:Work></rdf:RDF></metadata><defs id="defs6"><clipPath id="clipPath16" clipPathUnits="userSpaceOnUse"><path id="path18" d="m0 600h800v-600h-800v600z"/></clipPath></defs><g id="g10" transform="matrix(1.25 0 0 -1.25 -79.944 439.88)"><g id="g12"><g id="g14" clip-path="url(#clipPath16)"><g id="g20" transform="translate(64.801 295.94)"><path id="path22" d="m0 0s5.455-2.636 14.492-1.913c0 0 6.446 0.27 21.46 3.35 0 0-9.9-15.756-12.182-19.102 0 0-0.969-1.164 0.019-1.722 0 0 0.911-0.71 1.96 1.112l13.704 20.47 22.066 4.718-10.652-26.938s-0.574-1.42 0.485-1.655c0 0 0.554-0.319 1.188 0.896 0 0 11.994 27.509 12.563 28.649 0.275 0.547 17.017 3.599 17.017 3.599s-12.117-18.851-5.86-20.555c0 0 2.535-1.977 16.87 8.397 0 0 1.617 1.359 1.565-1.746 0 0 0.101-5.731 5.565-4.089 0 0 3.284 1.085 16.669 7.063 0 0-0.541-7.569 6.098-5.464 0 0 12.826 5.731 15.047 6.676 0 0-0.323-5.829 4.317-5.409 0 0 0.991 0 15.623 4.794 0 0 2.969 1.042 5.629-0.453 0 0 5.084-2.572 13.598-0.776 0 0 2.639 0.557 1.782 2.44 0 0-0.508 1.173-2.48 0.248 0 0-7.124-2.727-11.843 0.323 0 0-2.796 1.72-6.289 0.648-2.75-0.844-8.803-2.691-15.131-4.614 0 0-2.782-1.166-2.682 2.499 0 0 0.38 3.526-2.778 2.636-1.179-0.332-13.098-5.542-15.551-6.572 0 0-3.35-1.811-2.825 3.688 0 0 0.44 3.917-3.822 1.633 0 0-8.243-3.828-14.77-6.575 0 0-3.936-1.792-3.66 2.486 0 0 0.15 3.669-1.643 3.94 0 0-1.233 0.39-3.284-0.942 0 0-6.621-4.731-12.634-7.458 0 0-7.331-4.282 5.024 16.437 0 0 1.149 1.456 3.653 1.981l2.433 0.456s1.318 0.17 1.201 1.039c0 0 0.237 1.428-1.962 1.092l-2.434-0.153s3.049 5.16 3.996 6.6c0 0 1.032 1.649-0.552 2.281 0 0-1.464 0.674-2.836-2.033l-4.332-7.666s-9.167-1.886-17.255-3.337l6.063 11.459s1.294 2.131 0.659 3.441c0 0-1.465 2.297-3.437-0.713 0 0-0.681-2.138-3.351-4.415 0 0-2.13-2.131 0-2.281 0 0-2.179-5.444-3.688-8.223 0 0-10.469-2.665-21.08-4.549l4.758 6.868s1.368 2.434-0.305 2.89c0 0-1.217 0.456-2.589-2.28 0 0-5.213-7.426-6.276-8.641 0 0-13.903-3.089-21.916-3.857 0 0-6.306-0.858-14.493 1.909 0 0-1.04 0.244-1.555-0.707 0 0-0.753-1.148 0.643-1.88"/></g><g id="g24" transform="translate(198.46 334.51)"><path id="path26" d="m0 0s-12.721-5.503-14.61-8.676c0 0-1.13-1.984 1.03-2.506 0 0 1.378-0.199 2.013 1.593 0 0 8.983 6.966 13.85 8.524 0 0 2.072 0.502 1.37 1.522 0 0-0.419 0.898-3.653-0.457"/></g><g id="g28" transform="translate(276.16 321.75)"><path id="path30" d="m0 0c0.092 0.566-0.613 0.805-0.613 0.805s-6.975 2.222-0.736 5.646c0 0 9.884 6.314 21.967 8.787 0 0 17.85 4.669 24.989 1.649 0 0 5.719-2.229 4.544-5.487 0 0-0.512-3.342-22.454-22.918 0 0-9.251-7.829-15.987-10.413 0 0 13.85 27.01 15.226 30.852 0 0 0.977 2.413-0.824 3.023 0 0-1.897 0.967-3.476-3.509 0 0-11.258-26.228-14.279-31.721 0 0-6.412-5.138-5.864-7.882 0 0 0.275-1.374 2.198-0.55 0 0-8.131-17.141-9.611-20.048 0 0-5.783-11.771-9.376-17.088l-2.281-3.285c-0.209-0.372-0.264-0.909 0.283-1.384 0.147-0.127 0.892-0.369 1.659 0.55 0 0 1.906 1.2 13.56 23.681l9.257 19.033 8.591 7.051s6.085 3.659 6.253-1.17c0 0-1.04-15.205 19.228-1.983 0 0-1.778-10.303 11.778-3.623 0 0 11.314 5.713 18.218 8.965 0 0-0.349-8.545 6.875-7.603 0 0 2.546-0.496 24.524 7.076 0 0 10.836 4.144 6.717-2.721 0 0-4.532-7.243-7.448-12.012 0 0-11.475-15.533-8.558-25.169 0 0 0.626-2.252 1.612-2.949 0 0 1.065-0.459 0.984 1.101 0 0-0.857 8.882 4.943 17.848 0 0 13.587 21.181 13.455 24.713 0 0 0.798 6.301-10.457 3.007 0 0-17.013-5.796-22.7-7.548 0 0-8.464-3.237-7.207 5.365 0 0 1.098 4.119-4.944 0.825 0 0-20.331-10.253-21.144-10.159 0 0-5.764-1.871-3.57 4.666 0 0 8.853 4.401 6.864 7.689 0 0-2.985 4.633-9.124-5.399 0 0-16.98-12.89-17.237-2.29 0 0 0.659 5.376-3.515 5.508 0 0 28.054 22.616 30.427 29.366 0 0 5.525 11.878-18.122 10.709 0 0-26.284-2.302-39.818-14.279 0 0-4.522-4.246 1.129-6.485 1.411-0.556 3.289-0.736 3.289-0.736 0.551-0.121 0.732 0.209 0.775 0.496"/></g><g id="g32" transform="translate(492.2 347.25)"><path id="path34" d="m0 0s10.339 5.7 9.175-0.186c0 0-6.658-17.675-20.173-29.21 0 0-6.656-5.323-10.084-7.145 0 0 6.591 28.889 21.082 36.541m-28.9-42.128c-2.783-2.069-7.807-4.393-7.807-4.393-1.244-0.582-1.552-0.117-1.661 0.082-0.416 0.746 0.787 1.358 1.215 1.646 2.022 1.365 7.621 3.714 7.621 3.714 0.922 0.329 0.976 0.055 1.088-0.117 0.334-0.509-0.456-0.932-0.456-0.932m125.28 39.841c1.89 4.203-0.421 4.203-0.421 4.203-1.255 0.209-2.309-1.681-2.309-1.681-2.943-5.464-15.76-15.552-15.76-15.552-25.846-22.728-42.02-23.983-42.02-23.983-5.45-0.43-2.529 6.122-2.529 6.122 1.475 4.832-2.733 2.733-2.733 2.733l-22.272-9.878c-4.853-2.349 1.028 6.431 1.028 6.431l6.745 3.024c2.123 1.039 0.844 2.734 0.844 2.734-1.054 0.987-3.994-0.421-3.994-0.421-4.069-1.707-26.267-10.295-26.267-10.295-10.787-3.402-6.39 0.994-6.39 0.994 9.121 4.232 18.79 16.234 18.79 16.234 9.381 12.587 11.346 20.804 11.346 20.804 1.454 5.705-3.786 5.448-3.786 5.448-5.181 0.337-9.836-2.768-9.836-2.768-14.489-7.903-20.583-37.845-20.583-37.845-3.903 0-17.001-5.722-17.001-5.722-21.459-6.738-25.713-6.415-25.713-6.415-3.481-0.436-3.559 6.328-3.559 6.328-0.631 5.251-4.413 5.043-4.413 5.043 2.733 1.681 9.036 3.151 9.036 3.151 1.549 0.42 3.85-0.492 4.528-0.368 0.679 0.123 0.789 0.612 0.789 0.612 0.175 0.459-0.068 0.681-0.471 1.007-1.097 0.889-3.586 1.058-3.586 1.058-3.989 0.633-24.794-8.402-24.794-8.402 5.644 15.786 10.995 25.074 10.995 25.074 1.951 3.399 0.326 4.347 0.326 4.347-1.48 0.812-3.044-1.225-3.044-1.225-3.667-4.333-10.589-29.036-10.589-29.036-2.801-0.707-2.313-2.103-2.313-2.103 0.25-1.28 1.483-1.172 1.483-1.172-1.478-8.165-1.444-9.397-1.444-9.397-0.056-2.563 1.584-2.179 1.584-2.179 1.654 0.384 0.69 2.662 0.69 2.662-0.442 1.101 1.245 9.477 1.245 9.477l2.748 1.03c14.498 6.305 14.709 0.629 14.709 0.629 0.564-7.761 3.72-8.591 3.72-8.591 3.364-1.619 26.957 5.861 26.957 5.861-2.044-1.502-0.382-4.033-0.382-4.033 3.364-5.609 17.442 5.932 17.442 5.932 1.865 1.32 1.381 0.894 1.381 0.894-0.57-3.093 4.884-2.165 4.884-2.165 2.119-0.114 23.536 8.195 23.536 8.195l-1.473-3.151c-3.523-7.011 2.942-5.464 2.942-5.464 2.31 0.42 23.501 9.908 23.501 9.908-1.211-3.414 0.778-5.835 0.778-5.835 6.223-7.438 35.932 12.541 35.932 12.541 6.315 3.978 22.435 18.63 22.435 18.63l-1.321-3.093c-9.145-20.49-9.277-30.294-9.277-30.294-0.45-11.615 8.431-7.95 8.431-7.95 2.73 1.47 2.101 2.522 2.101 2.522-0.211 1.053-1.468 0.42-1.468 0.42-7.475-2.54-3.897 10.31-3.897 10.31 5.164 16.557 12.719 34.66 12.719 34.66"/></g><g id="g36" transform="translate(727.33 317.02)"><path id="path38" d="m0 0c11.635-1.6 8.263-6.21 8.263-6.21-0.841-1.313-1.652-1.121-2.206-1.036-1.697 0.261-1.828 2.049-1.828 2.049-2.039 1.756-7.507 2.561-7.507 2.561-28.608 5.715-107.54 2.141-107.54 2.141-2.305-0.172-2.359 0.323-2.382 0.971-0.032 0.876 1.532 0.83 1.532 0.83s62.829 5.416 111.67-1.306"/></g></g></g></g></svg>
